<svg width="100%" height="100%"
    xmlns="http://www.w3.org/2000/svg"
    xmlns:xlink="http://www.w3.org/1999/xlink">
    <symbol id="type" viewBox="0 0 84.293 29.582"><!-- logo completo en blanco -->

        <path id="_7124129_cube_transparent_icon" data-name="7124129_cube_transparent_icon" d="M19.133,13.593l-3.027,1.513m0,0L13.08,13.593m3.027,1.513V18.89M28.214,9.053l-3.027,1.513m3.027-1.513L25.187,7.54m3.027,1.513v3.783m-9.08-8.323L16.107,3,13.08,4.513M4,9.053,7.027,7.54M4,9.053l3.027,1.513M4,9.053v3.783m12.107,17.4L13.08,28.727m3.027,1.513,3.027-1.513M16.107,30.24V26.457M7.027,25.7,4,24.187V20.4m21.187,5.3,3.027-1.513V20.4" transform="translate(-2.658 -2)" fill="none" stroke="#fff" stroke-linecap="round" stroke-linejoin="round" stroke-width="2"/>
        <path id="Dash" d="M2.319,18.094V2.107l4.39,0q2.383,0,4.064.733t2.7,1.924q1.023,1.194,1.5,2.641t.478,2.883q0,1.811-.634,3.247t-1.746,2.452q-1.113,1.017-2.548,1.558t-3.039.543Zm2.162-2.057H7.065q1.336,0,2.461-.4t1.959-1.149q.835-.751,1.3-1.845t.467-2.485q0-1.48-.489-2.6T11.429,5.7q-.846-.752-1.914-1.139T7.265,4.167l-2.785,0Zm17.91,2.269q-1.289,0-2.344-.551t-1.667-1.622q-.611-1.071-.611-2.617,0-1.524.645-2.639t1.722-1.711q1.078-.6,2.366-.6t2.177.586q.888.585,1.354,1.38l-.133.353.2-1.942h1.909v9.134H25.944V15.7l.222.53q-.089.221-.389.563t-.8.7q-.5.353-1.144.585T22.39,18.306Zm.555-1.7q.777,0,1.4-.287t1.032-.806q.411-.519.566-1.247V12.479q-.178-.662-.622-1.159t-1.066-.773q-.622-.276-1.377-.276-.822,0-1.511.4t-1.1,1.1q-.411.706-.411,1.656,0,.883.422,1.612t1.133,1.148Q22.124,16.606,22.946,16.606Zm11.206,1.65q-.975,0-1.9-.341t-1.519-1.025L31.6,15.7q.577.551,1.186.827T34,16.8q.443,0,.82-.111t.61-.364q.233-.254.233-.695,0-.485-.321-.772t-.82-.463q-.5-.176-1.053-.331-1.131-.375-1.73-1.036t-.6-1.61q0-.728.366-1.356t1.087-1.025q.721-.4,1.785-.4.953,0,1.707.232t1.418.761l-.82,1.278q-.4-.419-.953-.618t-1-.221q-.377-.022-.72.11t-.565.375q-.222.243-.222.573,0,.463.31.75t.809.452q.5.165.986.342.687.2,1.219.529t.853.816q.321.485.321,1.212,0,.816-.388,1.51t-1.174,1.1Q35.371,18.256,34.152,18.257Zm6.447-.179V1.02l2.015,0V11.069l-.044-.375q.465-.9,1.428-1.5T46.265,8.6q1.305,0,2.134.761t.851,1.971v6.739H47.172V12.061q-.022-.749-.431-1.223t-1.272-.474q-.8,0-1.438.451t-1.007,1.223q-.365.771-.365,1.763v4.275Z" transform="translate(32.827 4.827)" fill="#fff"/>

    </symbol>
    <symbol id="icon" viewBox="0 0 26.897 29.582"><!-- Logo solo en blanco -->

        <path id="_7124129_cube_transparent_icon" data-name="7124129_cube_transparent_icon" d="M19.133,13.593l-3.027,1.513m0,0L13.08,13.593m3.027,1.513V18.89M28.214,9.053l-3.027,1.513m3.027-1.513L25.187,7.54m3.027,1.513v3.783m-9.08-8.323L16.107,3,13.08,4.513M4,9.053,7.027,7.54M4,9.053l3.027,1.513M4,9.053v3.783m12.107,17.4L13.08,28.727m3.027,1.513,3.027-1.513M16.107,30.24V26.457M7.027,25.7,4,24.187V20.4m21.187,5.3,3.027-1.513V20.4" transform="translate(-2.658 -2)" fill="none" stroke="#fff" stroke-linecap="round" stroke-linejoin="round" stroke-width="2"/>

    </symbol>

    <symbol id="fade" viewBox="0 0 84.293 29.582"><!-- Logo completo en Gris responsive -->
        <path id="_7124129_cube_transparent_icon" data-name="7124129_cube_transparent_icon" d="M19.133,13.593l-3.027,1.513m0,0L13.08,13.593m3.027,1.513V18.89M28.214,9.053l-3.027,1.513m3.027-1.513L25.187,7.54m3.027,1.513v3.783m-9.08-8.323L16.107,3,13.08,4.513M4,9.053,7.027,7.54M4,9.053l3.027,1.513M4,9.053v3.783m12.107,17.4L13.08,28.727m3.027,1.513,3.027-1.513M16.107,30.24V26.457M7.027,25.7,4,24.187V20.4m21.187,5.3,3.027-1.513V20.4" transform="translate(-2.658 -2)" fill="none" stroke="#3c4b64" stroke-linecap="round" stroke-linejoin="round" stroke-width="2"/>
        <path id="Dash" d="M2.319,18.094V2.107l4.39,0q2.383,0,4.064.733t2.7,1.924q1.023,1.194,1.5,2.641t.478,2.883q0,1.811-.634,3.247t-1.746,2.452q-1.113,1.017-2.548,1.558t-3.039.543Zm2.162-2.057H7.065q1.336,0,2.461-.4t1.959-1.149q.835-.751,1.3-1.845t.467-2.485q0-1.48-.489-2.6T11.429,5.7q-.846-.752-1.914-1.139T7.265,4.167l-2.785,0Zm17.91,2.269q-1.289,0-2.344-.551t-1.667-1.622q-.611-1.071-.611-2.617,0-1.524.645-2.639t1.722-1.711q1.078-.6,2.366-.6t2.177.586q.888.585,1.354,1.38l-.133.353.2-1.942h1.909v9.134H25.944V15.7l.222.53q-.089.221-.389.563t-.8.7q-.5.353-1.144.585T22.39,18.306Zm.555-1.7q.777,0,1.4-.287t1.032-.806q.411-.519.566-1.247V12.479q-.178-.662-.622-1.159t-1.066-.773q-.622-.276-1.377-.276-.822,0-1.511.4t-1.1,1.1q-.411.706-.411,1.656,0,.883.422,1.612t1.133,1.148Q22.124,16.606,22.946,16.606Zm11.206,1.65q-.975,0-1.9-.341t-1.519-1.025L31.6,15.7q.577.551,1.186.827T34,16.8q.443,0,.82-.111t.61-.364q.233-.254.233-.695,0-.485-.321-.772t-.82-.463q-.5-.176-1.053-.331-1.131-.375-1.73-1.036t-.6-1.61q0-.728.366-1.356t1.087-1.025q.721-.4,1.785-.4.953,0,1.707.232t1.418.761l-.82,1.278q-.4-.419-.953-.618t-1-.221q-.377-.022-.72.11t-.565.375q-.222.243-.222.573,0,.463.31.75t.809.452q.5.165.986.342.687.2,1.219.529t.853.816q.321.485.321,1.212,0,.816-.388,1.51t-1.174,1.1Q35.371,18.256,34.152,18.257Zm6.447-.179V1.02l2.015,0V11.069l-.044-.375q.465-.9,1.428-1.5T46.265,8.6q1.305,0,2.134.761t.851,1.971v6.739H47.172V12.061q-.022-.749-.431-1.223t-1.272-.474q-.8,0-1.438.451t-1.007,1.223q-.365.771-.365,1.763v4.275Z" transform="translate(32.827 4.827)" fill="#3c4b64"/>
    </symbol>
</svg>
